<?xml version="1.0" encoding="UTF-8"?>
<svg version="1.1" xmlns="http://www.w3.org/2000/svg" width="321" height="115">
<path d="M0 0 C4.95147666 3.31691583 8.76429771 6.97324147 10 13 C10.99577283 20.76296371 10.59934777 26.8848331 6.1328125 33.43359375 C1.79325762 38.65536583 -3.06214482 43.34978687 -8 48 C-6.82050781 48.00386719 -5.64101562 48.00773437 -4.42578125 48.01171875 C0.39195913 48.61778391 2.27682073 50.86595194 5.17773438 54.58007812 C5.71720703 55.31677734 6.25667969 56.05347656 6.8125 56.8125 C7.37130859 57.53759766 7.93011719 58.26269531 8.50585938 59.00976562 C10.0265569 60.99084118 11.51731144 62.99040771 13 65 C13.99913944 66.33397832 14.99890548 67.66748826 16 69 C16.06058594 67.72382812 16.12117187 66.44765625 16.18359375 65.1328125 C16.26799568 63.46352984 16.35264386 61.79425963 16.4375 60.125 C16.47681641 59.28324219 16.51613281 58.44148438 16.55664062 57.57421875 C16.59853516 56.76855469 16.64042969 55.96289062 16.68359375 55.1328125 C16.73858032 54.01737061 16.73858032 54.01737061 16.79467773 52.87939453 C17 51 17 51 18 49 C19.81242052 48.97312721 21.62495233 48.95366285 23.4375 48.9375 C24.44683594 48.92589844 25.45617187 48.91429687 26.49609375 48.90234375 C29 49 29 49 30 50 C30.10099488 52.72724279 30.13970529 55.42862523 30.1328125 58.15625 C30.13376923 58.97371704 30.13472595 59.79118408 30.13571167 60.63342285 C30.13639345 62.36515378 30.13453929 64.09688724 30.13037109 65.82861328 C30.12502279 68.48866482 30.13031612 71.1485475 30.13671875 73.80859375 C30.13605797 75.48697954 30.1347768 77.16536523 30.1328125 78.84375 C30.13483673 79.64478149 30.13686096 80.44581299 30.13894653 81.27111816 C30.11495079 86.88504921 30.11495079 86.88504921 29 88 C24.51456816 88.75274548 19.88257207 89.33722381 16.03125 86.6015625 C14.20205721 84.48763687 12.60942387 82.28595161 11 80 C9.38616778 78.01171651 7.7608433 76.03271379 6.125 74.0625 C5.36445313 73.12535156 4.60390625 72.18820313 3.8203125 71.22265625 C2.46261587 69.56382999 2.46261587 69.56382999 1 68 C0.96241577 68.85549438 0.96241577 68.85549438 0.92407227 69.72827148 C0.80843451 72.29826157 0.68556376 74.86785527 0.5625 77.4375 C0.52318359 78.33533203 0.48386719 79.23316406 0.44335938 80.15820312 C0.40146484 81.01220703 0.35957031 81.86621094 0.31640625 82.74609375 C0.26141968 83.93223267 0.26141968 83.93223267 0.20532227 85.14233398 C0 87 0 87 -1 88 C-4.63 88 -8.26 88 -12 88 C-12.33 76.78 -12.66 65.56 -13 54 C-18.44562357 58.61193913 -18.44562357 58.61193913 -23.5 63.5 C-25.71616758 65.76552543 -27.96980443 67.82603305 -30.4375 69.8125 C-33.36431077 72.23961137 -35.48701606 74.88638927 -37.75 77.9375 C-45.35596852 87.68310514 -56.94822918 92.97853684 -69 95 C-80.24738722 95.88255046 -89.33142635 92.64450249 -99 87 C-99.86109375 86.25492187 -100.7221875 85.50984375 -101.609375 84.7421875 C-103.77114052 82.76185413 -103.77114052 82.76185413 -105.93530273 83.18652344 C-108.41133176 84.16206189 -109.61507362 85.33030228 -111.42578125 87.2734375 C-112.37420898 88.2634375 -112.37420898 88.2634375 -113.34179688 89.2734375 C-114.64621942 90.6644768 -115.94834039 92.05767828 -117.24804688 93.453125 C-122.02449529 98.42798718 -125.81978438 101.35465378 -132.80859375 102.43359375 C-140.79207478 102.44545628 -145.83480755 100.8135044 -151.8125 95.5 C-152.8953125 94.2625 -152.8953125 94.2625 -154 93 C-154.556875 92.38125 -155.11375 91.7625 -155.6875 91.125 C-158.9862239 85.78420892 -159.38490282 80.5671554 -158.609375 74.4921875 C-157.60678051 70.39183311 -155.52444946 67.32902546 -153 64 C-152.278125 63.01 -151.55625 62.02 -150.8125 61 C-150.214375 60.34 -149.61625 59.68 -149 59 C-148.34 59 -147.68 59 -147 59 C-147 58.34 -147 57.68 -147 57 C-145.3203125 55.37890625 -145.3203125 55.37890625 -143.125 53.5625 C-140.53806278 51.41599116 -138.88815626 49.83223438 -137 47 C-136.34 47 -135.68 47 -135 47 C-135 46.34 -135 45.68 -135 45 C-134.34 45 -133.68 45 -133 45 C-133 44.34 -133 43.68 -133 43 C-131.37735576 41.26785216 -129.71445562 39.63923001 -128 38 C-126.51956248 36.53645222 -125.04196512 35.07002882 -123.56640625 33.6015625 C-122.3453418 32.38726562 -122.3453418 32.38726562 -121.09960938 31.1484375 C-120.26236328 30.31570312 -119.42511719 29.48296875 -118.5625 28.625 C-117.72912109 27.8 -116.89574219 26.975 -116.03710938 26.125 C-112.4491563 22.55122855 -108.92937503 19.0008903 -105.69921875 15.09765625 C-102.13760201 10.84575572 -97.89231747 8.51896108 -93 6 C-92.21625 5.59523438 -91.4325 5.19046875 -90.625 4.7734375 C-79.74773588 -0.2000484 -68.13036624 -0.01801603 -57 4 C-52.26875049 5.99175679 -48.09173041 8.09813575 -44.125 11.375 C-42.20989508 13.18916988 -42.20989508 13.18916988 -40.21875 12.96484375 C-36.86589427 11.50682374 -34.79496404 8.83880995 -32.375 6.1875 C-22.82228452 -3.80069614 -12.55607933 -7.16539509 0 0 Z " fill="#49C9EA" transform="translate(169,8)"/>
<path d="M0 0 C-0.57215828 3.24455611 -1.43595909 4.74721699 -3.875 6.9375 C-5.83568571 8.70605822 -7.06899311 10.12093174 -8.390625 12.4375 C-10.22188676 15.35329543 -12.14728244 16.97732989 -14.875 19.0625 C-16.13957031 20.03896484 -16.13957031 20.03896484 -17.4296875 21.03515625 C-18.27789062 21.68355469 -19.12609375 22.33195312 -20 23 C-23.91666825 26.03225929 -26.86262968 29.15672136 -30 33 C-32.69805919 35.84006231 -35.49509382 38.43341151 -38.5 40.9375 C-41.77318775 43.70058057 -44.30882312 46.67143912 -47 50 C-47.804375 50.78375 -48.60875 51.5675 -49.4375 52.375 C-52.1535952 55.15734142 -54.39064765 58.08788581 -56.66796875 61.23046875 C-58 63 -58 63 -60 65 C-60.64767793 67.57061311 -60.64767793 67.57061311 -61 70 C-61.74781738 69.76700195 -62.49563477 69.53400391 -63.26611328 69.29394531 C-66.00656722 68.701054 -66.00656722 68.701054 -67.92529297 70.30761719 C-68.52486816 70.96407227 -69.12444336 71.62052734 -69.7421875 72.296875 C-70.75345703 73.36421875 -70.75345703 73.36421875 -71.78515625 74.453125 C-72.47480469 75.21109375 -73.16445312 75.9690625 -73.875 76.75 C-79.39341165 82.75870531 -83.4634031 87.14525417 -91.80859375 88.43359375 C-99.79207478 88.44545628 -104.83480755 86.8135044 -110.8125 81.5 C-111.8953125 80.2625 -111.8953125 80.2625 -113 79 C-113.556875 78.38125 -114.11375 77.7625 -114.6875 77.125 C-117.9862239 71.78420892 -118.38490282 66.5671554 -117.609375 60.4921875 C-116.60678051 56.39183311 -114.52444946 53.32902546 -112 50 C-111.278125 49.01 -110.55625 48.02 -109.8125 47 C-109.214375 46.34 -108.61625 45.68 -108 45 C-107.34 45 -106.68 45 -106 45 C-106 44.34 -106 43.68 -106 43 C-104.3203125 41.37890625 -104.3203125 41.37890625 -102.125 39.5625 C-99.53806278 37.41599116 -97.88815626 35.83223438 -96 33 C-95.34 33 -94.68 33 -94 33 C-94 32.34 -94 31.68 -94 31 C-93.34 31 -92.68 31 -92 31 C-92 30.34 -92 29.68 -92 29 C-90.37735576 27.26785216 -88.71445562 25.63923001 -87 24 C-85.51956248 22.53645222 -84.04196512 21.07002882 -82.56640625 19.6015625 C-81.3453418 18.38726562 -81.3453418 18.38726562 -80.09960938 17.1484375 C-79.26236328 16.31570312 -78.42511719 15.48296875 -77.5625 14.625 C-76.72912109 13.8 -75.89574219 12.975 -75.03710938 12.125 C-71.4491563 8.55122855 -67.92937503 5.0008903 -64.69921875 1.09765625 C-58.39795578 -6.42486662 -48.0415488 -10.51811067 -38.6875 -12.8125 C-23.71701715 -13.57371099 -11.27052042 -10.10560875 0 0 Z " fill="#F43E5D" transform="translate(128,22)"/>
<path d="M0 0 C2.56005949 1.28002975 2.76979626 2.45757894 4 5 C4.95018086 6.29767557 5.90918656 7.58891682 6.875 8.875 C13.14978386 18.19489956 15.32048766 29.23857251 13.45703125 40.19140625 C12.16548729 46.46360042 10.70352672 51.74338143 7 57 C6.01 57.495 6.01 57.495 5 58 C4.71125 58.9075 4.4225 59.815 4.125 60.75 C1.41196131 68.58766733 -5.03504042 72.20666497 -12 76 C-23.14013222 80.84923402 -34.2402741 82.95706417 -46 79 C-57.91714027 73.80763801 -57.91714027 73.80763801 -61 70 C-61.5 67.625 -61.5 67.625 -61 65 C-58.6875 62.5 -58.6875 62.5 -56 60 C-54.96986723 58.35178756 -53.96885372 56.68496298 -53 55 C-51.03695168 52.3171673 -49.23780245 50.18773878 -46.625 48.125 C-43.84891055 45.87768949 -41.74974176 43.45951246 -39.46875 40.73046875 C-36.58077132 37.32787685 -33.46074033 34.37435152 -30 31.5625 C-26.91482995 29.08145521 -26.91482995 29.08145521 -24.5 25.9375 C-21.88266117 22.86212688 -19.38583394 21.16693372 -16 19 C-11.69872516 15.70755295 -8.67954786 12.75010757 -6 8 C-4.33333333 6.33333333 -2.66666667 4.66666667 -1 3 C-0.67 2.01 -0.34 1.02 0 0 Z " fill="#2B8BE9" transform="translate(128,22)"/>
<path d="M0 0 C-0.09087891 0.96486328 -0.09087891 0.96486328 -0.18359375 1.94921875 C-0.36188729 3.87204596 -0.53599957 5.79526326 -0.70703125 7.71875 C-0.904273 9.92785758 -1.11016966 12.13620757 -1.32421875 14.34375 C-1.42347656 15.4471875 -1.52273437 16.550625 -1.625 17.6875 C-1.76808594 19.20923828 -1.76808594 19.20923828 -1.9140625 20.76171875 C-2.12563991 28.7343401 -0.45504836 33.94628988 3.375 40.8125 C3.77460937 41.56208984 4.17421875 42.31167969 4.5859375 43.08398438 C6.73196298 47.12148055 6.73196298 47.12148055 9.63916016 50.6081543 C11 52 11 52 11 54 C9.6015625 55.375 9.6015625 55.375 7.625 57 C4.17457795 59.90690424 1.05261257 62.98700306 -2.0625 66.25 C-7.6606372 71.8481372 -11.39688572 74.05093201 -19.4375 74.4375 C-26.31779674 74.22986416 -30.72804048 72.01951957 -35.8125 67.5 C-36.8953125 66.2625 -36.8953125 66.2625 -38 65 C-38.556875 64.38125 -39.11375 63.7625 -39.6875 63.125 C-42.9862239 57.78420892 -43.38490282 52.5671554 -42.609375 46.4921875 C-41.60678051 42.39183311 -39.52444946 39.32902546 -37 36 C-36.278125 35.01 -35.55625 34.02 -34.8125 33 C-34.214375 32.34 -33.61625 31.68 -33 31 C-32.34 31 -31.68 31 -31 31 C-31 30.34 -31 29.68 -31 29 C-29.3203125 27.37890625 -29.3203125 27.37890625 -27.125 25.5625 C-24.53806278 23.41599116 -22.88815626 21.83223438 -21 19 C-20.34 19 -19.68 19 -19 19 C-19 18.34 -19 17.68 -19 17 C-18.34 17 -17.68 17 -17 17 C-17 16.34 -17 15.68 -17 15 C-15.37759738 13.29021484 -13.70159555 11.63098993 -12 10 C-11.14019531 9.11699219 -10.28039063 8.23398437 -9.39453125 7.32421875 C-8.54246094 6.45410156 -7.69039062 5.58398438 -6.8125 4.6875 C-5.95269531 3.80449219 -5.09289063 2.92148437 -4.20703125 2.01171875 C-2 0 -2 0 0 0 Z " fill="#FC9C04" transform="translate(53,36)"/>
<path d="M0 0 C4.36920127 3.80145195 7.26579325 7.15288358 8 13 C8.49985885 20.98611691 8.31986855 27.31145025 3.1875 33.75 C-1.80710988 39.24044282 -7.62547801 39.8340399 -14.8125 40.1875 C-22.04403107 40.06305683 -28.33718223 38.7190148 -34 34 C-38.99537802 26.937569 -38.61431841 19.30627713 -38 11 C-36.77532062 6.29723119 -34.88155073 3.74442061 -31.1875 0.625 C-21.92011857 -4.09954739 -9.35821382 -5.40378695 0 0 Z M-25 11 C-26.28282363 13.56564725 -26.20391953 15.51033069 -26.25 18.375 C-26.27578125 19.33148438 -26.3015625 20.28796875 -26.328125 21.2734375 C-25.9477363 24.43428645 -25.20848261 25.73991733 -23 28 C-17.7297441 29.75675197 -12.21523141 29.72334087 -6.9375 28 C-4.05976529 25.02943514 -4 21.94669873 -4 18 C-4.11044045 12.96603251 -4.11044045 12.96603251 -6.9375 9.0625 C-13.08612538 6.92930344 -19.80078847 6.63937098 -25 11 Z " fill="#FA9C06" transform="translate(250,58)"/>
<path d="M0 0 C2.86687014 2.16594904 4.80041053 4.83953225 6.875 7.75 C7.42929688 8.47960937 7.98359375 9.20921875 8.5546875 9.9609375 C10.06351537 11.95578205 11.53398721 13.97361939 13 16 C13.99767358 17.33507498 14.9970428 18.6688897 16 20 C16.09087891 18.08574219 16.09087891 18.08574219 16.18359375 16.1328125 C16.26799568 14.46352984 16.35264386 12.79425963 16.4375 11.125 C16.47681641 10.28324219 16.51613281 9.44148438 16.55664062 8.57421875 C16.59853516 7.76855469 16.64042969 6.96289062 16.68359375 6.1328125 C16.72025146 5.38918457 16.75690918 4.64555664 16.79467773 3.87939453 C17 2 17 2 18 0 C19.81242052 -0.02687279 21.62495233 -0.04633715 23.4375 -0.0625 C24.44683594 -0.07410156 25.45617187 -0.08570313 26.49609375 -0.09765625 C29 0 29 0 30 1 C30.10099488 3.72724279 30.13970529 6.42862523 30.1328125 9.15625 C30.13376923 9.97371704 30.13472595 10.79118408 30.13571167 11.63342285 C30.13639345 13.36515378 30.13453929 15.09688724 30.13037109 16.82861328 C30.12502279 19.48866482 30.13031612 22.1485475 30.13671875 24.80859375 C30.13605797 26.48697954 30.1347768 28.16536523 30.1328125 29.84375 C30.13483673 30.64478149 30.13686096 31.44581299 30.13894653 32.27111816 C30.11495079 37.88504921 30.11495079 37.88504921 29 39 C24.51456816 39.75274548 19.88257207 40.33722381 16.03125 37.6015625 C14.20205721 35.48763687 12.60942387 33.28595161 11 31 C9.38616778 29.01171651 7.7608433 27.03271379 6.125 25.0625 C4.98417969 23.65677734 4.98417969 23.65677734 3.8203125 22.22265625 C2.46261587 20.56382999 2.46261587 20.56382999 1 19 C0.97494385 19.57032959 0.9498877 20.14065918 0.92407227 20.72827148 C0.80843451 23.29826157 0.68556376 25.86785527 0.5625 28.4375 C0.52318359 29.33533203 0.48386719 30.23316406 0.44335938 31.15820312 C0.40146484 32.01220703 0.35957031 32.86621094 0.31640625 33.74609375 C0.27974854 34.53685303 0.24309082 35.3276123 0.20532227 36.14233398 C0 38 0 38 -1 39 C-2.85287502 39.07226502 -4.70833878 39.0838122 -6.5625 39.0625 C-7.57441406 39.05347656 -8.58632812 39.04445312 -9.62890625 39.03515625 C-10.41136719 39.02355469 -11.19382813 39.01195312 -12 39 C-12.02475064 34.23112363 -12.04288403 29.46228479 -12.05493164 24.69335938 C-12.05995505 23.07160796 -12.06677494 21.44986105 -12.07543945 19.828125 C-12.08759229 17.49478031 -12.09324828 15.1614956 -12.09765625 12.828125 C-12.10281754 12.10506165 -12.10797882 11.38199829 -12.11329651 10.63702393 C-12.11405194 3.83193321 -12.11405194 3.83193321 -11 1 C-7.4345709 -0.78271455 -3.86636526 -0.84571754 0 0 Z " fill="#E89B21" transform="translate(169,57)"/>
<path d="M0 0 C3.84093309 -0.64613828 7.17796158 -0.83300837 11 0 C14.58324333 2.91778386 17.29918581 6.26554088 20 10 C23.69895705 6.40562645 23.69895705 6.40562645 26.625 2.1875 C29.58700106 -0.54065887 30.80862276 -0.3125 34.75 -0.3125 C36.50126074 -0.23227209 38.25215533 -0.13560864 40 0 C40.495 1.485 40.495 1.485 41 3 C39.234375 5.55859375 39.234375 5.55859375 36.75 8.4375 C35.16614232 10.29121878 33.58277356 12.14535547 32 14 C31.38640625 14.69222656 30.7728125 15.38445312 30.140625 16.09765625 C28.82042801 17.90769224 28.82042801 17.90769224 29.0703125 19.9375 C30.30027152 22.66614859 31.9613731 24.70084388 33.875 27 C35.2512083 28.66566908 36.6262726 30.33228425 38 32 C38.60070312 32.70125 39.20140625 33.4025 39.8203125 34.125 C40.20960938 34.74375 40.59890625 35.3625 41 36 C40.67 36.99 40.34 37.98 40 39 C31.03010699 39.78377706 31.03010699 39.78377706 27.125 36.8125 C26.42375 35.884375 25.7225 34.95625 25 34 C23.68962066 32.31522656 22.36176922 30.64351457 21 29 C20.34 29 19.68 29 19 29 C17.25821064 30.98550212 17.25821064 30.98550212 15.5 33.4375 C12.20595533 37.89702233 12.20595533 37.89702233 10 39 C8.29297265 39.06996014 6.58331997 39.08440154 4.875 39.0625 C3.96492188 39.05347656 3.05484375 39.04445312 2.1171875 39.03515625 C1.41851562 39.02355469 0.71984375 39.01195312 0 39 C0.38808004 33.52645442 2.2043543 31.17823575 6 27.3125 C9.75472992 23.62047883 9.75472992 23.62047883 12 19 C10.24761307 16.34551284 10.24761307 16.34551284 7.8125 13.625 C7.01457031 12.68914062 6.21664063 11.75328125 5.39453125 10.7890625 C3.82314053 8.95876401 2.23756588 7.14052881 0.63671875 5.3359375 C0.09660156 4.56507812 -0.44351562 3.79421875 -1 3 C-0.67 2.01 -0.34 1.02 0 0 Z " fill="#FA9C05" transform="translate(269,57)"/>
<path d="M0 0 C0.66 0.33 1.32 0.66 2 1 C2 1.66 2 2.32 2 3 C2.66 3.33 3.32 3.66 4 4 C3.01 4 2.02 4 1 4 C0.34 5.65 -0.32 7.3 -1 9 C-1.84820312 8.81566406 -2.69640625 8.63132812 -3.5703125 8.44140625 C-7.28153648 7.96376581 -10.19790447 8.29963649 -13.875 8.9375 C-15.02742188 9.13214844 -16.17984375 9.32679687 -17.3671875 9.52734375 C-18.67042969 9.76130859 -18.67042969 9.76130859 -20 10 C-21.15795477 13.47386432 -21.16829849 16.27769304 -21.1875 19.9375 C-21.20876953 21.77634766 -21.20876953 21.77634766 -21.23046875 23.65234375 C-21.01676797 26.75643812 -20.63998182 28.41362551 -19 31 C-18.34 31 -17.68 31 -17 31 C-16.01 31.33 -15.02 31.66 -14 32 C-15.32 32.99 -16.64 33.98 -18 35 C-17.67 35.99 -17.34 36.98 -17 38 C-21.15096454 37.75582562 -23.45370849 37.43455006 -26.75 34.8125 C-32.83006271 27.21242161 -32.54886287 20.76930875 -31.7890625 11.3984375 C-31.1536838 7.17669901 -30.24505902 4.71003431 -26.8125 2.0625 C-19.27710384 -2.41550182 -7.91425281 -4.70292628 0 0 Z " fill="#F99D0A" transform="translate(245,57)"/>
<path d="M0 0 C3.3 0 6.6 0 10 0 C10 0.99 10 1.98 10 3 C9.01 3.33 8.02 3.66 7 4 C9.31 4.66 11.62 5.32 14 6 C14.12375 6.928125 14.12375 6.928125 14.25 7.875 C14.4975 8.57625 14.745 9.2775 15 10 C15.66 10.309375 16.32 10.61875 17 10.9375 C17.66 11.288125 18.32 11.63875 19 12 C19.75 14.625 19.75 14.625 20 17 C18.5410574 16.52269162 17.08286504 16.04308958 15.625 15.5625 C14.81289062 15.29566406 14.00078125 15.02882813 13.1640625 14.75390625 C11 14 11 14 9 13 C8.67 20.59 8.34 28.18 8 36 C5.03 36 2.06 36 -1 36 C-1.02946879 32.0625162 -1.04695407 28.12506144 -1.0625 24.1875 C-1.07087891 23.08728516 -1.07925781 21.98707031 -1.08789062 20.85351562 C-1.10860444 13.83153122 -0.74094455 6.98354827 0 0 Z " fill="#FC9C05" transform="translate(159,59)"/>
<path d="M0 0 C0.66 0.33 1.32 0.66 2 1 C1.61328125 1.50789063 1.2265625 2.01578125 0.828125 2.5390625 C-5.72993292 10.49541078 -5.72993292 10.49541078 -9 20 C-5.45424229 22.36383847 -1.8531903 23.42981732 2.1875 24.625 C2.91775391 24.85445312 3.64800781 25.08390625 4.40039062 25.3203125 C9.43399611 26.81835629 13.75108359 27.22588768 19 27 C18.67 26.01 18.34 25.02 18 24 C19.25 22.4375 19.25 22.4375 21 21 C23.125 21.1875 23.125 21.1875 25 22 C25.495 22.99 25.495 22.99 26 24 C26.66 21.69 27.32 19.38 28 17 C28.78375 16.9175 29.5675 16.835 30.375 16.75 C33.14749104 16.27193661 33.14749104 16.27193661 34.3125 13.9375 C34.6528125 12.9784375 34.6528125 12.9784375 35 12 C35.66 12 36.32 12 37 12 C37 11.34 37 10.68 37 10 C38.32 10.33 39.64 10.66 41 11 C40.34 11.99 39.68 12.98 39 14 C39.66 14 40.32 14 41 14 C41.66 15.65 42.32 17.3 43 19 C44.65 18.67 46.3 18.34 48 18 C40.93457919 25.9202495 29.19990171 30.35377307 18.76953125 31.17578125 C8.26197265 31.51940193 -2.69690999 28.34274797 -10.8203125 21.45703125 C-12 20 -12 20 -12.5 17.625 C-11.79256095 13.91094497 -9.72900457 12.5386089 -7 10 C-5.96986723 8.35178756 -4.96885372 6.68496298 -4 5 C-2.68962066 3.31522656 -1.36176922 1.64351457 0 0 Z " fill="#2F8BE7" transform="translate(79,72)"/>
<path d="M0 0 C0 11.88 0 23.76 0 36 C-9 36 -9 36 -11.3125 34.375 C-11.869375 33.59125 -12.42625 32.8075 -13 32 C-13.763125 31.030625 -14.52625 30.06125 -15.3125 29.0625 C-17 26 -17 26 -16.75 23.125 C-16.5025 22.42375 -16.255 21.7225 -16 21 C-13.69 21.33 -11.38 21.66 -9 22 C-9 21.01 -9 20.02 -9 19 C-8.01 18.67 -7.02 18.34 -6 18 C-6.99 18 -7.98 18 -9 18 C-10.50214856 12.24176387 -9.48118585 8.55418012 -7.3984375 3.0390625 C-6 1 -6 1 -3.4140625 0.2109375 C-1 0 -1 0 0 0 Z " fill="#FC9C04" transform="translate(197,59)"/>
<path d="M0 0 C5.08938811 1.59043379 8.87456643 4.7446951 13 8 C12.42784172 11.24455611 11.56404091 12.74721699 9.125 14.9375 C7.16431429 16.70605822 5.93100689 18.12093174 4.609375 20.4375 C2.77811324 23.35329543 0.85271756 24.97732989 -1.875 27.0625 C-2.71804687 27.71347656 -3.56109375 28.36445312 -4.4296875 29.03515625 C-5.27789062 29.68355469 -6.12609375 30.33195312 -7 31 C-10.91666825 34.03225929 -13.86262968 37.15672136 -17 41 C-19.69805919 43.84006231 -22.49509382 46.43341151 -25.5 48.9375 C-28.77318775 51.70058057 -31.30882312 54.67143912 -34 58 C-34.804375 58.78375 -35.60875 59.5675 -36.4375 60.375 C-39.1535952 63.15734142 -41.39064765 66.08788581 -43.66796875 69.23046875 C-45 71 -45 71 -47 73 C-47.64767793 75.57061311 -47.64767793 75.57061311 -48 78 C-48.99 77.34 -49.98 76.68 -51 76 C-50.58682778 71.17965738 -48.61980085 69.09007389 -45 66 C-44.34 66 -43.68 66 -43 66 C-42.731875 65.443125 -42.46375 64.88625 -42.1875 64.3125 C-41.795625 63.549375 -41.40375 62.78625 -41 62 C-40.3503125 60.7315625 -40.3503125 60.7315625 -39.6875 59.4375 C-38 57 -38 57 -35.625 55.625 C-32.50288142 53.69225993 -31.1973026 51.57959322 -29.1953125 48.5703125 C-27.72579328 46.63976765 -26.18622349 45.98003122 -24 45 C-23.566875 44.071875 -23.566875 44.071875 -23.125 43.125 C-22 41 -22 41 -19.125 39.125 C-15.68004603 36.7824313 -14.25018512 34.45028386 -12 31 C-10.68252676 30.30251417 -9.35085807 29.63040043 -8 29 C-6.73195434 26.9664052 -6.73195434 26.9664052 -6 25 C-5.01 25 -4.02 25 -3 25 C-3 23.02 -3 21.04 -3 19 C-2.34 18.67 -1.68 18.34 -1 18 C-0.34 18.33 0.32 18.66 1 19 C1.1546875 18.071875 1.1546875 18.071875 1.3125 17.125 C2 15 2 15 5 13 C5 12.01 5 11.02 5 10 C4.34 10 3.68 10 3 10 C2.34 11.32 1.68 12.64 1 14 C0.01 13.67 -0.98 13.34 -2 13 C-1.34 11.68 -0.68 10.36 0 9 C0.66 9 1.32 9 2 9 C2 8.34 2 7.68 2 7 C0.68 7 -0.64 7 -2 7 C-2.495 5.02 -2.495 5.02 -3 3 C-2.01 2.67 -1.02 2.34 0 2 C0 1.34 0 0.68 0 0 Z " fill="#F54361" transform="translate(115,14)"/>
<path d="M0 0 C1.65 1.65 3.3 3.3 5 5 C4.01 5.33 3.02 5.66 2 6 C1.855625 7.2375 1.71125 8.475 1.5625 9.75 C1.21311498 12.56504499 0.79620634 15.2701497 0 18 C0.99 18 1.98 18 3 18 C3 16.68 3 15.36 3 14 C7.1795645 11.21362367 9.14668677 12.20437488 14 13 C14.268125 13.763125 14.53625 14.52625 14.8125 15.3125 C16.29752942 18.67606664 16.29752942 18.67606664 19 21 C22.12549017 21.25048636 22.12549017 21.25048636 25 21 C24.72382467 19.05925139 24.72382467 19.05925139 24 17 C23.01 16.34 22.02 15.68 21 15 C20.525625 14.154375 20.05125 13.30875 19.5625 12.4375 C18.24246904 9.84059437 18.24246904 9.84059437 15.8125 9.1875 C15.214375 9.125625 14.61625 9.06375 14 9 C14.33 6.69 14.66 4.38 15 2 C15.99 2.33 16.98 2.66 18 3 C18.33892671 4.33192251 18.67102929 5.66558359 19 7 C20.74584947 9.50575812 20.74584947 9.50575812 22.875 12 C24.2512083 13.66566908 25.6262726 15.33228425 27 17 C27.60070312 17.70125 28.20140625 18.4025 28.8203125 19.125 C29.20960938 19.74375 29.59890625 20.3625 30 21 C29.505 22.485 29.505 22.485 29 24 C20.03010699 24.78377706 20.03010699 24.78377706 16.125 21.8125 C15.42375 20.884375 14.7225 19.95625 14 19 C12.68962066 17.31522656 11.36176922 15.64351457 10 14 C9.34 14 8.68 14 8 14 C6.25821064 15.98550212 6.25821064 15.98550212 4.5 18.4375 C1.20595533 22.89702233 1.20595533 22.89702233 -1 24 C-2.70702735 24.06996014 -4.41668003 24.08440154 -6.125 24.0625 C-7.03507812 24.05347656 -7.94515625 24.04445313 -8.8828125 24.03515625 C-9.93082031 24.01775391 -9.93082031 24.01775391 -11 24 C-10.61191996 18.52645442 -8.7956457 16.17823575 -5 12.3125 C-1.24527008 8.62047883 -1.24527008 8.62047883 1 4 C0.61067144 1.85744207 0.61067144 1.85744207 0 0 Z " fill="#F89F12" transform="translate(280,72)"/>
<path d="M0 0 C3.84093309 -0.64613828 7.17796158 -0.83300837 11 0 C14.58324333 2.91778386 17.29918581 6.26554088 20 10 C23.69895705 6.40562645 23.69895705 6.40562645 26.625 2.1875 C29.58700106 -0.54065887 30.80862276 -0.3125 34.75 -0.3125 C36.50126074 -0.23227209 38.25215533 -0.13560864 40 0 C40.495 1.485 40.495 1.485 41 3 C39.234375 5.59375 39.234375 5.59375 36.75 8.5 C35.94046875 9.4590625 35.1309375 10.418125 34.296875 11.40625 C32.5809141 13.34400177 30.86443952 15.20820099 29 17 C29 16.01 29 15.02 29 14 C27.35 14 25.7 14 24 14 C24 13.34 24 12.68 24 12 C22.96875 12 21.9375 12 20.875 12 C18.12787259 11.64894721 17.19254954 11.20558901 15.26953125 9.15234375 C14.23089435 7.6982521 13.22654924 6.21892196 12.26171875 4.71484375 C11.84535156 4.14894531 11.42898438 3.58304688 11 3 C8.78918149 2.89459074 8.78918149 2.89459074 6 4 C5.67 4.99 5.34 5.98 5 7 C5.639375 7.598125 6.27875 8.19625 6.9375 8.8125 C9 11 9 11 10 14 C6.27399097 12.75799699 5.19570713 11.16014015 2.75 8.125 C1.65945313 6.79855469 1.65945313 6.79855469 0.546875 5.4453125 C0.03640625 4.63835938 -0.4740625 3.83140625 -1 3 C-0.67 2.01 -0.34 1.02 0 0 Z " fill="#F8A014" transform="translate(269,57)"/>
<path d="M0 0 C2.92628903 2.25267938 4.9279044 5.00904 7.0625 8 C7.93165039 9.1446875 7.93165039 9.1446875 8.81835938 10.3125 C10.2388333 12.19081263 11.63005702 14.08469046 13 16 C9.02945403 16 7.83528756 14.6860619 5 12 C4.1875 9.75 4.1875 9.75 4 8 C3.34 8 2.68 8 2 8 C1.67 8.66 1.34 9.32 1 10 C1 9.01 1 8.02 1 7 C-0.98 7 -2.96 7 -5 7 C-4.34 6.34 -3.68 5.68 -3 5 C-2.01 5 -1.02 5 0 5 C0 4.01 0 3.02 0 2 C-3.3 2 -6.6 2 -10 2 C-9.99476318 2.91289795 -9.98952637 3.8257959 -9.98413086 4.76635742 C-9.96704369 8.16756833 -9.9545278 11.56873331 -9.94506836 14.9699707 C-9.94005331 16.43937909 -9.93323967 17.90878252 -9.92456055 19.37817383 C-9.91237072 21.49561795 -9.90674331 23.61299583 -9.90234375 25.73046875 C-9.89710693 27.00301514 -9.89187012 28.27556152 -9.88647461 29.58666992 C-9.98460394 32.5370919 -10.30936165 35.13946675 -11 38 C-8.03 38 -5.06 38 -2 38 C-2.02320313 36.95199219 -2.04640625 35.90398437 -2.0703125 34.82421875 C-2.08907303 33.44531963 -2.10727293 32.0664128 -2.125 30.6875 C-2.14175781 29.99720703 -2.15851563 29.30691406 -2.17578125 28.59570312 C-2.21217794 24.82864604 -2.14378864 23.21568296 0 20 C0.02683987 22.97922593 0.04676037 25.95821295 0.0625 28.9375 C0.07087891 29.78763672 0.07925781 30.63777344 0.08789062 31.51367188 C0.09111328 32.32255859 0.09433594 33.13144531 0.09765625 33.96484375 C0.10289307 34.7137085 0.10812988 35.46257324 0.11352539 36.23413086 C0 38 0 38 -1 39 C-2.85287502 39.07226502 -4.70833878 39.0838122 -6.5625 39.0625 C-7.57441406 39.05347656 -8.58632812 39.04445312 -9.62890625 39.03515625 C-10.41136719 39.02355469 -11.19382813 39.01195312 -12 39 C-12.02475064 34.23112363 -12.04288403 29.46228479 -12.05493164 24.69335938 C-12.05995505 23.07160796 -12.06677494 21.44986105 -12.07543945 19.828125 C-12.08759229 17.49478031 -12.09324828 15.1614956 -12.09765625 12.828125 C-12.10281754 12.10506165 -12.10797882 11.38199829 -12.11329651 10.63702393 C-12.11405194 3.83193321 -12.11405194 3.83193321 -11 1 C-7.42611473 -0.78694264 -3.87321649 -0.87113591 0 0 Z " fill="#D29530" transform="translate(169,57)"/>
<path d="M0 0 C3.4398759 0 5.43271292 0.46441758 7.95703125 2.84765625 C9.69798248 4.85808262 11.37770589 6.89293753 13 9 C12.67 9.66 12.34 10.32 12 11 C10.02 9.02 8.04 7.04 6 5 C5.01 5.495 5.01 5.495 4 6 C2.25458212 11.87095107 3.37019928 18.01204851 4 24 C3.01 24.33 2.02 24.66 1 25 C0.97421875 24.08476563 0.9484375 23.16953125 0.921875 22.2265625 C0.86515625 21.03804687 0.8084375 19.84953125 0.75 18.625 C0.70359375 17.44164063 0.6571875 16.25828125 0.609375 15.0390625 C0.32914861 11.96018151 0.32914861 11.96018151 -1.734375 10.6015625 C-4.24630511 9.93460175 -6.40053113 9.73414958 -9 9.75 C-9.845625 9.74484375 -10.69125 9.7396875 -11.5625 9.734375 C-14.17224437 10.01877022 -15.79095359 10.59962237 -18 12 C-19.29376578 14.58753156 -19.16832397 16.54958985 -19.1875 19.4375 C-19.20167969 20.40558594 -19.21585938 21.37367187 -19.23046875 22.37109375 C-19.19149451 25.23266727 -19.19149451 25.23266727 -17 28 C-13.89188713 28.80541207 -13.89188713 28.80541207 -10.375 29.1875 C-8.59222656 29.42533203 -8.59222656 29.42533203 -6.7734375 29.66796875 C-5.40058594 29.83232422 -5.40058594 29.83232422 -4 30 C-6 32 -6 32 -8.2421875 32.16015625 C-9.11101562 32.12792969 -9.97984375 32.09570312 -10.875 32.0625 C-14.14552516 31.95022824 -16.85645696 32.05693709 -20 33 C-19.67 32.01 -19.34 31.02 -19 30 C-19.66 29.01 -20.32 28.02 -21 27 C-21.265625 23.78515625 -21.265625 23.78515625 -21.25 20.0625 C-21.25515625 18.83660156 -21.2603125 17.61070313 -21.265625 16.34765625 C-20.85419004 11.16236567 -20.85419004 11.16236567 -19 9 C-15.91796875 8.1015625 -15.91796875 8.1015625 -12.1875 7.625 C-10.35251953 7.36589844 -10.35251953 7.36589844 -8.48046875 7.1015625 C-4.99837473 6.99995257 -3.07182212 7.44361012 0 9 C1.07525194 6.34771188 2.09456151 3.71631546 3 1 C2.01 0.67 1.02 0.34 0 0 Z " fill="#E99A19" transform="translate(244,57)"/>
<path d="M0 0 C-0.30953519 3.09535193 -1.02926454 4.0278897 -3.328125 6.21875 C-4.77445313 7.34796875 -4.77445313 7.34796875 -6.25 8.5 C-7.20390625 9.2528125 -8.1578125 10.005625 -9.140625 10.78125 C-10.08421875 11.5134375 -11.0278125 12.245625 -12 13 C-15.9147645 16.03790251 -18.86069281 19.1543487 -22 23 C-24.69805919 25.84006231 -27.49509382 28.43341151 -30.5 30.9375 C-33.77318775 33.70058057 -36.30882312 36.67143912 -39 40 C-39.804375 40.78375 -40.60875 41.5675 -41.4375 42.375 C-44.1535952 45.15734142 -46.39064765 48.08788581 -48.66796875 51.23046875 C-50 53 -50 53 -52 55 C-52.64767793 57.57061311 -52.64767793 57.57061311 -53 60 C-53.99 59.34 -54.98 58.68 -56 58 C-55.58682778 53.17965738 -53.61980085 51.09007389 -50 48 C-49.34 48 -48.68 48 -48 48 C-47.731875 47.443125 -47.46375 46.88625 -47.1875 46.3125 C-46.795625 45.549375 -46.40375 44.78625 -46 44 C-45.3503125 42.7315625 -45.3503125 42.7315625 -44.6875 41.4375 C-43 39 -43 39 -40.625 37.625 C-37.50288142 35.69225993 -36.1973026 33.57959322 -34.1953125 30.5703125 C-32.72579328 28.63976765 -31.18622349 27.98003122 -29 27 C-28.71125 26.38125 -28.4225 25.7625 -28.125 25.125 C-27 23 -27 23 -24.125 21.125 C-20.68004603 18.7824313 -19.25018512 16.45028386 -17 13 C-15.68252676 12.30251417 -14.35085807 11.63040043 -13 11 C-11.73195434 8.9664052 -11.73195434 8.9664052 -11 7 C-10.01 7 -9.02 7 -8 7 C-8 6.34 -8 5.68 -8 5 C-2.52380952 0 -2.52380952 0 0 0 Z " fill="#B85889" transform="translate(120,32)"/>
<path d="M0 0 C0.66 0.33 1.32 0.66 2 1 C2.8125 3.875 2.8125 3.875 3 7 C1.6875 8.875 1.6875 8.875 0 10 C-0.66 10 -1.32 10 -2 10 C-1.979375 11.0725 -1.95875 12.145 -1.9375 13.25 C-1.9857984 16.14790424 -2.13155885 18.28612141 -3 21 C-1.68 21 -0.36 21 1 21 C1 23.64 1 26.28 1 29 C-0.32 29.33 -1.64 29.66 -3 30 C-2.67 33.63 -2.34 37.26 -2 41 C-6.71493652 34.71341797 -6.50830585 27.346015 -5.609375 19.66015625 C-5.25361389 17.64502365 -4.87334098 15.63401357 -4.46484375 13.62890625 C-4.05075762 11.2870578 -3.96989522 9.35659194 -4.125 7 C-4 4 -4 4 -2 1.5625 C-1.34 1.046875 -0.68 0.53125 0 0 Z " fill="#ED4846" transform="translate(56,31)"/>
<path d="M0 0 C0.66 0.33 1.32 0.66 2 1 C1.61328125 1.50789063 1.2265625 2.01578125 0.828125 2.5390625 C-5.72993292 10.49541078 -5.72993292 10.49541078 -9 20 C-5.47175016 22.35216656 -1.90105812 23.39445412 2.125 24.5625 C2.88675537 24.78574951 3.64851074 25.00899902 4.43334961 25.23901367 C9.63199414 26.71871744 14.5870384 27.70474755 20 28 C20.495 29.485 20.495 29.485 21 31 C9.48504096 31.36555426 -1.7257902 29.16590745 -10.8203125 21.45703125 C-12 20 -12 20 -12.5 17.625 C-11.79256095 13.91094497 -9.72900457 12.5386089 -7 10 C-5.96986723 8.35178756 -4.96885372 6.68496298 -4 5 C-2.68962066 3.31522656 -1.36176922 1.64351457 0 0 Z " fill="#5B96D2" transform="translate(79,72)"/>
<path d="M0 0 C0.99 0.33 1.98 0.66 3 1 C3.33892671 2.33192251 3.67102929 3.66558359 4 5 C5.74584947 7.50575812 5.74584947 7.50575812 7.875 10 C9.2512083 11.66566908 10.6262726 13.33228425 12 15 C12.60070312 15.70125 13.20140625 16.4025 13.8203125 17.125 C14.20960938 17.74375 14.59890625 18.3625 15 19 C14.67 19.99 14.34 20.98 14 22 C5.03010699 22.78377706 5.03010699 22.78377706 1.125 19.8125 C0.42375 18.884375 -0.2775 17.95625 -1 17 C-2.31037934 15.31522656 -3.63823078 13.64351457 -5 12 C-5.66 12 -6.32 12 -7 12 C-7.33 12.66 -7.66 13.32 -8 14 C-10.0625 14.625 -10.0625 14.625 -12 15 C-12 14.01 -12 13.02 -12 12 C-7.8204355 9.21362367 -5.85331323 10.20437488 -1 11 C-0.731875 11.763125 -0.46375 12.52625 -0.1875 13.3125 C1.29752942 16.67606664 1.29752942 16.67606664 4 19 C7.12549017 19.25048636 7.12549017 19.25048636 10 19 C9.72382467 17.05925139 9.72382467 17.05925139 9 15 C8.01 14.34 7.02 13.68 6 13 C5.525625 12.154375 5.05125 11.30875 4.5625 10.4375 C3.24246904 7.84059437 3.24246904 7.84059437 0.8125 7.1875 C0.214375 7.125625 -0.38375 7.06375 -1 7 C-0.67 4.69 -0.34 2.38 0 0 Z " fill="#EEA128" transform="translate(295,74)"/>
<path d="M0 0 C-0.06058594 0.64324219 -0.12117188 1.28648438 -0.18359375 1.94921875 C-0.36188729 3.87204596 -0.53599957 5.79526326 -0.70703125 7.71875 C-0.904273 9.92785758 -1.11016966 12.13620757 -1.32421875 14.34375 C-2.0924633 22.88423482 -2.0540587 29.85584348 1 38 C-2.07505176 35.9499655 -2.73995463 35.30679349 -4 32 C-4.31884766 29.52636719 -4.31884766 29.52636719 -4.4140625 26.796875 C-4.45273437 25.8171875 -4.49140625 24.8375 -4.53125 23.828125 C-4.5621875 22.81234375 -4.593125 21.7965625 -4.625 20.75 C-4.66367187 19.71875 -4.70234375 18.6875 -4.7421875 17.625 C-4.83631674 15.0835106 -4.92194979 12.54202567 -5 10 C-5.99 10 -6.98 10 -8 10 C-8.99 9.67 -9.98 9.34 -11 9 C-9.54782324 7.49403892 -8.08807139 5.99537896 -6.625 4.5 C-5.40683594 3.24703125 -5.40683594 3.24703125 -4.1640625 1.96875 C-2 0 -2 0 0 0 Z " fill="#FD8B1F" transform="translate(53,36)"/>
<path d="M0 0 C0.99 0 1.98 0 3 0 C3 9 3 9 0.69921875 11.375 C-0.29464844 12.24125 -1.28851563 13.1075 -2.3125 14 C-6.76876222 17.88072454 -6.76876222 17.88072454 -11 22 C-10.67 20.35 -10.34 18.7 -10 17 C-9.34 17 -8.68 17 -8 17 C-7.731875 16.0925 -7.46375 15.185 -7.1875 14.25 C-6.10219272 11.27968534 -5.0764429 9.34728328 -3 7 C-2.67 7 -2.34 7 -2 7 C-1.34 4.69 -0.68 2.38 0 0 Z " fill="#4FB6E1" transform="translate(143,62)"/>
<path d="M0 0 C0.33 0 0.66 0 1 0 C0.97679687 1.16917969 0.95359375 2.33835937 0.9296875 3.54296875 C0.91092179 5.09113942 0.89272245 6.63931703 0.875 8.1875 C0.85824219 8.95642578 0.84148437 9.72535156 0.82421875 10.51757812 C0.78006285 15.66174035 0.90741031 19.46081389 4.30639648 23.58520508 C9.27034327 28.56842357 14.12976524 29.04927106 20.9375 29.375 C22.3925293 29.47748047 22.3925293 29.47748047 23.87695312 29.58203125 C26.25083835 29.74574747 28.62336927 29.8843784 31 30 C31 30.33 31 30.66 31 31 C22.37533435 33.15616641 13.46145516 32.39596666 5.625 28.1875 C2.0338735 25.19489459 0.4633622 22.39008659 -1 18 C-1.09617307 15.48818571 -1.13934762 13.01083378 -1.125 10.5 C-1.12886719 9.82324219 -1.13273438 9.14648438 -1.13671875 8.44921875 C-1.13062416 5.35926233 -0.9844023 2.95320689 0 0 Z " fill="#D08F29" transform="translate(213,66)"/>
<path d="M0 0 C3.3 0 6.6 0 10 0 C9.34 1.32 8.68 2.64 8 4 C6.68 4 5.36 4 4 4 C2.05799728 9.20179299 0.86322006 13.39202233 1 19 C0.34 19.66 -0.32 20.32 -1 21 C-1.02895976 17.87501937 -1.04678483 14.7500731 -1.0625 11.625 C-1.07087891 10.73554687 -1.07925781 9.84609375 -1.08789062 8.9296875 C-1.09111328 8.07890625 -1.09433594 7.228125 -1.09765625 6.3515625 C-1.10289307 5.56604004 -1.10812988 4.78051758 -1.11352539 3.97119141 C-1 2 -1 2 0 0 Z " fill="#F0B64C" transform="translate(187,57)"/>
<path d="M0 0 C0 3 0 3 -2.37109375 5.62890625 C-3.38586139 6.61441454 -4.40835389 7.59201649 -5.4375 8.5625 C-9.17489401 11.92358607 -9.17489401 11.92358607 -12 16 C-12.66 16 -13.32 16 -14 16 C-14 17.32 -14 18.64 -14 20 C-14.5775 20.103125 -15.155 20.20625 -15.75 20.3125 C-18.32049158 21.09792798 -19.93657284 22.30504197 -22 24 C-22 23.01 -22 22.02 -22 21 C-21.34 20.67 -20.68 20.34 -20 20 C-20 19.01 -20 18.02 -20 17 C-19.360625 16.71125 -18.72125 16.4225 -18.0625 16.125 C-15.84793921 15.17176549 -15.84793921 15.17176549 -15 13 C-14.34 13 -13.68 13 -13 13 C-13 12.01 -13 11.02 -13 10 C-11.68 10 -10.36 10 -9 10 C-9 9.01 -9 8.02 -9 7 C-8.1646875 6.6596875 -8.1646875 6.6596875 -7.3125 6.3125 C-4.36753316 4.64103234 -2.31843456 2.44723648 0 0 Z " fill="#70CADE" transform="translate(172,42)"/>
<path d="M0 0 C2.97826121 0.06683335 4.39328712 0.29843367 6.77001953 2.1328125 C8.61980547 4.21592778 10.26070017 6.35759645 11.87890625 8.625 C12.74805664 9.7696875 12.74805664 9.7696875 13.63476562 10.9375 C15.05523955 12.81581263 16.44646327 14.70969046 17.81640625 16.625 C13.84586028 16.625 12.65169381 15.3110619 9.81640625 12.625 C9.00390625 10.375 9.00390625 10.375 8.81640625 8.625 C8.15640625 8.625 7.49640625 8.625 6.81640625 8.625 C6.48640625 9.285 6.15640625 9.945 5.81640625 10.625 C5.81640625 9.635 5.81640625 8.645 5.81640625 7.625 C3.83640625 7.625 1.85640625 7.625 -0.18359375 7.625 C0.47640625 6.965 1.13640625 6.305 1.81640625 5.625 C2.80640625 5.625 3.79640625 5.625 4.81640625 5.625 C4.81640625 4.635 4.81640625 3.645 4.81640625 2.625 C1.18640625 2.625 -2.44359375 2.625 -6.18359375 2.625 C-3.87257721 0.31398346 -3.16781762 0.20734558 0 0 Z " fill="#E5A231" transform="translate(164.18359375,56.375)"/>
<path d="M0 0 C3.70986572 -0.28783441 7.29998705 -0.45251957 11 0 C13.6875 2.5 13.6875 2.5 15 5 C14.38125 4.67 13.7625 4.34 13.125 4 C10.09736784 2.57523193 9.23509555 2.92163482 6 4 C5.67 4.99 5.34 5.98 5 7 C5.639375 7.598125 6.27875 8.19625 6.9375 8.8125 C9 11 9 11 10 14 C6.27399097 12.75799699 5.19570713 11.16014015 2.75 8.125 C1.65945313 6.79855469 1.65945313 6.79855469 0.546875 5.4453125 C0.03640625 4.63835938 -0.4740625 3.83140625 -1 3 C-0.67 2.01 -0.34 1.02 0 0 Z " fill="#E9A231" transform="translate(269,57)"/>
<path d="M0 0 C0.66 0.33 1.32 0.66 2 1 C1.44570312 1.60328125 0.89140625 2.2065625 0.3203125 2.828125 C-0.40414062 3.62734375 -1.12859375 4.4265625 -1.875 5.25 C-2.59429687 6.03890625 -3.31359375 6.8278125 -4.0546875 7.640625 C-5.7819158 9.73549627 -6.8641163 11.56225874 -8 14 C-10.03126475 16.38148282 -11.39315155 17.79239395 -14.375 18.8125 C-18.27378658 20.57623679 -20.41068848 23.67215633 -23 27 C-23.66 26.67 -24.32 26.34 -25 26 C-13.28772547 12.85877695 -13.28772547 12.85877695 -8 8.5625 C-4.87953971 5.89710684 -2.53657879 3.20802611 0 0 Z " fill="#6179C8" transform="translate(106,45)"/>
<path d="M0 0 C0.99 0.33 1.98 0.66 3 1 C1.94512267 1.96671756 0.88066719 2.92298745 -0.1875 3.875 C-0.77917969 4.40867187 -1.37085937 4.94234375 -1.98046875 5.4921875 C-7.51531368 9.62458623 -13.34478314 9.65507841 -20 9 C-22.57816161 8.23232021 -24.61207399 7.27356054 -27 6 C-26.401875 5.855625 -25.80375 5.71125 -25.1875 5.5625 C-23.43849596 5.1127561 -21.71322977 4.57107659 -20 4 C-19.67 5.32 -19.34 6.64 -19 8 C-15.535 7.505 -15.535 7.505 -12 7 C-12 6.01 -12 5.02 -12 4 C-11.01 3.67 -10.02 3.34 -9 3 C-8.67 3.66 -8.34 4.32 -8 5 C-7.01 5 -6.02 5 -5 5 C-4.67 4.01 -4.34 3.02 -4 2 C-2.68 2 -1.36 2 0 2 C0 1.34 0 0.68 0 0 Z " fill="#DF951F" transform="translate(48,101)"/>
<path d="M0 0 C0.99 0 1.98 0 3 0 C3.33 0.99 3.66 1.98 4 3 C5.65 2.67 7.3 2.34 9 2 C5.82943189 5.5817141 2.31317736 7.63158756 -1.9375 9.6875 C-2.54529297 9.99494141 -3.15308594 10.30238281 -3.77929688 10.61914062 C-7.15851159 12.28505338 -10.2652121 13.4684837 -14 14 C-13.67 13.01 -13.34 12.02 -13 11 C-11.02670397 10.57245253 -9.05321667 10.14573663 -7.078125 9.7265625 C-3.43811777 8.45392839 -2.0769244 6.18029048 0 3 C0 2.01 0 1.02 0 0 Z " fill="#3486D8" transform="translate(118,88)"/>
<path d="M0 0 C0.33 0 0.66 0 1 0 C1.30083291 9.39267202 0.80104286 15.32257694 -5.46484375 22.58203125 C-7 24 -7 24 -10 25 C-10.99 24.67 -11.98 24.34 -13 24 C-13 23.34 -13 22.68 -13 22 C-11.35 22 -9.7 22 -8 22 C-8 21.34 -8 20.68 -8 20 C-7.01 20 -6.02 20 -5 20 C-4.01 16.535 -4.01 16.535 -3 13 C-2.34 13 -1.68 13 -1 13 C-1.01160156 12.22914062 -1.02320313 11.45828125 -1.03515625 10.6640625 C-1.04869141 9.15972656 -1.04869141 9.15972656 -1.0625 7.625 C-1.07410156 6.62726563 -1.08570313 5.62953125 -1.09765625 4.6015625 C-1 2 -1 2 0 0 Z " fill="#EDA633" transform="translate(257,71)"/>
<path d="M0 0 C0.66 0.33 1.32 0.66 2 1 C1.61328125 1.50789063 1.2265625 2.01578125 0.828125 2.5390625 C-5.72993292 10.49541078 -5.72993292 10.49541078 -9 20 C-6.01353231 21.99097846 -3.40312738 22.94124926 0 24 C-2.77660334 25.38830167 -4.04966186 24.89196269 -7 24 C-11.72881356 21.05762712 -11.72881356 21.05762712 -12.625 17.5625 C-11.74704069 13.96286681 -9.6817216 12.49462474 -7 10 C-5.96986723 8.35178756 -4.96885372 6.68496298 -4 5 C-2.68962066 3.31522656 -1.36176922 1.64351457 0 0 Z " fill="#4084D2" transform="translate(79,72)"/>
<path d="M0 0 C3.3 0 6.6 0 10 0 C10 0.99 10 1.98 10 3 C9.0925 3.391875 8.185 3.78375 7.25 4.1875 C3.85881606 6.0787372 2.20967163 7.8554673 0 11 C0 7.37 0 3.74 0 0 Z " fill="#F29A0B" transform="translate(159,59)"/>
<path d="M0 0 C2.77425784 1.38712892 3.61161954 3.2926581 5 6 C3.8125 7.5 3.8125 7.5 2 9 C-0.6875 9.1875 -0.6875 9.1875 -3 9 C-3.66 7.02 -4.32 5.04 -5 3 C-2.6 0 -2.6 0 0 0 Z " fill="#3186DB" transform="translate(102,93)"/>
<path d="M0 0 C0.99 0.495 0.99 0.495 2 1 C1.97679687 1.75925781 1.95359375 2.51851563 1.9296875 3.30078125 C1.91164062 4.29464844 1.89359375 5.28851563 1.875 6.3125 C1.85179687 7.29863281 1.82859375 8.28476563 1.8046875 9.30078125 C1.79317361 12.22406527 1.79317361 12.22406527 4 15 C7.10811287 15.80541207 7.10811287 15.80541207 10.625 16.1875 C12.40777344 16.42533203 12.40777344 16.42533203 14.2265625 16.66796875 C15.59941406 16.83232422 15.59941406 16.83232422 17 17 C15 19 15 19 12.7578125 19.16015625 C11.88898438 19.12792969 11.02015625 19.09570312 10.125 19.0625 C6.85447484 18.95022824 4.14354304 19.05693709 1 20 C1.33 19.01 1.66 18.02 2 17 C1.34 16.01 0.68 15.02 0 14 C-0.1953125 10.64453125 -0.1953125 10.64453125 -0.125 6.8125 C-0.10695312 5.54019531 -0.08890625 4.26789063 -0.0703125 2.95703125 C-0.04710937 1.98121094 -0.02390625 1.00539063 0 0 Z " fill="#F3A32C" transform="translate(223,70)"/>
<path d="M0 0 C1.32 0.99 2.64 1.98 4 3 C3.14310618 7.72311713 0.5460512 9.9666309 -3 13 C-5.6875 14.75 -5.6875 14.75 -8 16 C-8.99 16.66 -9.98 17.32 -11 18 C-11.33 16.68 -11.66 15.36 -12 14 C-11.34 13.67 -10.68 13.34 -10 13 C-9.34 13.33 -8.68 13.66 -8 14 C-7.979375 13.401875 -7.95875 12.80375 -7.9375 12.1875 C-6.46092881 8.74216721 -3.32784286 8.42621837 0 7 C1.1490712 5.0745356 1.1490712 5.0745356 1 3 C0.67 2.01 0.34 1.02 0 0 Z " fill="#C4517B" transform="translate(124,19)"/>
<path d="M0 0 C0.66 0.33 1.32 0.66 2 1 C2.8125 3.875 2.8125 3.875 3 7 C1.6875 8.875 1.6875 8.875 0 10 C-0.66 10 -1.32 10 -2 10 C-2.33 11.65 -2.66 13.3 -3 15 C-4.18725323 11.28983366 -4.34572261 7.87209322 -4 4 C-2 1.5625 -2 1.5625 0 0 Z " fill="#ED4745" transform="translate(56,31)"/>
<path d="M0 0 C3.26460973 1.80412643 4.88929795 2.83394693 7 6 C6.875 8.0625 6.875 8.0625 6 10 C3.9375 11.25 3.9375 11.25 2 12 C1 9 1 9 1.9375 6.8125 C2.288125 6.214375 2.63875 5.61625 3 5 C1.02 4.34 -0.96 3.68 -3 3 C-2.01 2.67 -1.02 2.34 0 2 C0 1.34 0 0.68 0 0 Z " fill="#EA4464" transform="translate(119,16)"/>
<path d="M0 0 C1.12148438 0.08701172 1.12148438 0.08701172 2.265625 0.17578125 C2.595625 1.16578125 2.925625 2.15578125 3.265625 3.17578125 C2.275625 4.16578125 1.285625 5.15578125 0.265625 6.17578125 C0.265625 5.18578125 0.265625 4.19578125 0.265625 3.17578125 C-2.80819407 2.82110982 -5.6764405 2.63707776 -8.734375 3.17578125 C-11.22977871 6.04193611 -11.22977871 6.04193611 -12.734375 9.17578125 C-13.394375 9.17578125 -14.054375 9.17578125 -14.734375 9.17578125 C-14.12893952 7.81355142 -13.44323394 6.48717029 -12.734375 5.17578125 C-12.26 4.26828125 -11.785625 3.36078125 -11.296875 2.42578125 C-7.65627707 -0.77084132 -4.69172822 -0.21493519 0 0 Z " fill="#E3A337" transform="translate(306.734375,56.82421875)"/>
<path d="M0 0 C1.65 1.65 3.3 3.3 5 5 C4.01 5.33 3.02 5.66 2 6 C0.77479736 9.00847418 0.77479736 9.00847418 0 12 C-0.66 12 -1.32 12 -2 12 C-2 12.66 -2 13.32 -2 14 C-2.66 14 -3.32 14 -4 14 C-4.33 14.99 -4.66 15.98 -5 17 C-7.5625 18.1875 -7.5625 18.1875 -10 19 C-9.62488281 18.57589844 -9.24976563 18.15179688 -8.86328125 17.71484375 C-7.2179608 15.82914903 -5.60321913 13.92161545 -4 12 C-3.48953125 11.39027344 -2.9790625 10.78054687 -2.453125 10.15234375 C0.40629028 6.52699724 0.40629028 6.52699724 0.8125 2.0625 C0.544375 1.381875 0.27625 0.70125 0 0 Z " fill="#E99C22" transform="translate(280,72)"/>
<path d="M0 0 C-0.98378287 2.19459255 -1.77896406 3.79664694 -3.5625 5.4375 C-5.45263121 7.49199044 -5.6324247 9.27994277 -6 12 C-6.99 11.34 -7.98 10.68 -9 10 C-8.69121904 6.39755548 -8.00552268 5.00654002 -5.625 2.1875 C-3 0 -3 0 0 0 Z " fill="#7C73AB" transform="translate(73,80)"/>
<path d="M0 0 C0.33 0 0.66 0 1 0 C1.07476562 0.78503906 1.14953125 1.57007812 1.2265625 2.37890625 C2.16212259 9.85421483 3.53662422 13.7741623 9 19 C8.67 19.66 8.34 20.32 8 21 C2.02781348 15.51204482 -0.18720533 10.78730694 -0.984375 2.85546875 C-0.98953125 2.24316406 -0.9946875 1.63085938 -1 1 C-0.67 0.67 -0.34 0.34 0 0 Z " fill="#DC9931" transform="translate(11,84)"/>
<path d="M0 0 C1.23921302 2.97411124 2.30058404 5.85262818 3 9 C0.35247996 6.42215154 -1.94432065 4.08351902 -4 1 C-4.66 1 -5.32 1 -6 1 C-6.33 1.66 -6.66 2.32 -7 3 C-9.0625 3.625 -9.0625 3.625 -11 4 C-11 3.01 -11 2.02 -11 1 C-6.8204355 -1.78637633 -4.85331323 -0.79562512 0 0 Z " fill="#E89D21" transform="translate(294,85)"/>
<path d="M0 0 C-0.50547372 4.08055151 -2.50088882 5.66272295 -5.5625 8.25 C-6.38878906 8.95640625 -7.21507813 9.6628125 -8.06640625 10.390625 C-8.70449219 10.92171875 -9.34257813 11.4528125 -10 12 C-10 8.71434047 -9.75670469 7.71490725 -8 5 C-2.88571429 0 -2.88571429 0 0 0 Z " fill="#836CB1" transform="translate(120,32)"/>
<path d="M0 0 C2.5 2.25 2.5 2.25 5 5 C5 6.32 5 7.64 5 9 C6.65 8.67 8.3 8.34 10 8 C10 8.66 10 9.32 10 10 C9.34 10 8.68 10 8 10 C8.33 11.65 8.66 13.3 9 15 C4.73347598 11.2075342 2.10519025 7.32766024 0 2 C0 1.34 0 0.68 0 0 Z " fill="#ED4B3F" transform="translate(54,72)"/>
<path d="M0 0 C-0.33 0.66 -0.66 1.32 -1 2 C-2.65 2 -4.3 2 -6 2 C-6.33 2.99 -6.66 3.98 -7 5 C-8.65 5 -10.3 5 -12 5 C-12.33 4.34 -12.66 3.68 -13 3 C-11.40084119 2.30093058 -9.79544955 1.61610532 -8.1875 0.9375 C-7.29417969 0.55464844 -6.40085938 0.17179688 -5.48046875 -0.22265625 C-3 -1 -3 -1 0 0 Z " fill="#59BAD6" transform="translate(156,5)"/>
<path d="M0 0 C-1.12685023 3.38055068 -2.05384625 4.1079382 -4.75 6.3125 C-8.28291763 9.29895915 -11.15760943 12.35818708 -14 16 C-14.33 15.34 -14.66 14.68 -15 14 C-2.98984772 0 -2.98984772 0 0 0 Z " fill="#5AC5E6" transform="translate(144,9)"/>
<path d="M0 0 C0 0.66 0 1.32 0 2 C-0.66 2 -1.32 2 -2 2 C-2 3.32 -2 4.64 -2 6 C-2.5775 6.103125 -3.155 6.20625 -3.75 6.3125 C-6.32049158 7.09792798 -7.93657284 8.30504197 -10 10 C-10 9.01 -10 8.02 -10 7 C-9.34 6.67 -8.68 6.34 -8 6 C-8 5.01 -8 4.02 -8 3 C-2.25 0 -2.25 0 0 0 Z " fill="#8AC0B3" transform="translate(160,56)"/>
<path d="M0 0 C0.5534764 2.07553648 1 3.84365964 1 6 C0.030625 6.268125 -0.93875 6.53625 -1.9375 6.8125 C-2.948125 7.204375 -3.95875 7.59625 -5 8 C-5.33 8.99 -5.66 9.98 -6 11 C-6.99 11 -7.98 11 -9 11 C-9 10.34 -9 9.68 -9 9 C-8.34 9 -7.68 9 -7 9 C-7 8.34 -7 7.68 -7 7 C-6.34 7 -5.68 7 -5 7 C-5 6.34 -5 5.68 -5 5 C-3.37446717 3.29319053 -1.70884005 1.62339805 0 0 Z " fill="#F3A936" transform="translate(41,46)"/>
<path d="M0 0 C4.97649586 2.62648392 8.19579871 5.58739614 10 11 C9.34 11 8.68 11 8 11 C7.67 9.68 7.34 8.36 7 7 C5.35 6.67 3.7 6.34 2 6 C1.34 4.02 0.68 2.04 0 0 Z " fill="#61BCD8" transform="translate(168,8)"/>
<path d="M0 0 C-1.72601379 0.81917642 -3.4559647 1.63006016 -5.1875 2.4375 C-6.63189453 3.11619141 -6.63189453 3.11619141 -8.10546875 3.80859375 C-10.76631586 4.90381422 -13.16784755 5.54954796 -16 6 C-15.67 5.01 -15.34 4.02 -15 3 C-13.0390625 2.0859375 -13.0390625 2.0859375 -10.625 1.375 C-9.83351563 1.13523437 -9.04203125 0.89546875 -8.2265625 0.6484375 C-7.49179688 0.43445313 -6.75703125 0.22046875 -6 0 C-3 -1 -3 -1 0 0 Z " fill="#3B7CC2" transform="translate(120,96)"/>
<path d="M0 0 C2.31 1.98 4.62 3.96 7 6 C6.34 6.66 5.68 7.32 5 8 C4.01 7.01 3.02 6.02 2 5 C1.01 6.32 0.02 7.64 -1 9 C-1.09765625 2.84765625 -1.09765625 2.84765625 -1 1 C-0.67 0.67 -0.34 0.34 0 0 Z " fill="#F7AD36" transform="translate(168,71)"/>
<path d="M0 0 C1.134375 0.020625 2.26875 0.04125 3.4375 0.0625 C3.4375 1.0525 3.4375 2.0425 3.4375 3.0625 C0.10416667 6.0625 0.10416667 6.0625 -2.5625 6.0625 C-2.5625 4.7425 -2.5625 3.4225 -2.5625 2.0625 C-3.2225 1.7325 -3.8825 1.4025 -4.5625 1.0625 C-3.5625 0.0625 -3.5625 0.0625 0 0 Z " fill="#F89B08" transform="translate(303.5625,59.9375)"/>
<path d="M0 0 C3.4398759 0 5.43271292 0.46441758 7.95703125 2.84765625 C9.69798248 4.85808262 11.37770589 6.89293753 13 9 C12.67 9.66 12.34 10.32 12 11 C11.60167969 10.50628906 11.20335937 10.01257813 10.79296875 9.50390625 C9.99826172 8.54291016 9.99826172 8.54291016 9.1875 7.5625 C8.66542969 6.92441406 8.14335937 6.28632812 7.60546875 5.62890625 C5.99165589 3.7451725 5.99165589 3.7451725 3 3 C3 2.34 3 1.68 3 1 C2.01 0.67 1.02 0.34 0 0 Z " fill="#ECA636" transform="translate(244,57)"/>
<path d="M0 0 C1.65 0.99 3.3 1.98 5 3 C5.33 2.34 5.66 1.68 6 1 C6.99 1.33 7.98 1.66 9 2 C8 4 8 4 6 7 C5.01 7 4.02 7 3 7 C0 2.77777778 0 2.77777778 0 0 Z " fill="#EE9B14" transform="translate(182,75)"/>
<path d="M0 0 C1.32 0.33 2.64 0.66 4 1 C4.33 2.32 4.66 3.64 5 5 C2 7 2 7 -0.1875 6.625 C-0.785625 6.41875 -1.38375 6.2125 -2 6 C-1.34 5.67 -0.68 5.34 0 5 C0 3.68 0 2.36 0 1 C0 0.67 0 0.34 0 0 Z " fill="#EC970A" transform="translate(275,58)"/>
<path d="M0 0 C0.66 0.66 1.32 1.32 2 2 C1.01 2.99 0.02 3.98 -1 5 C-1.66 4.67 -2.32 4.34 -3 4 C-2.01 2.68 -1.02 1.36 0 0 Z M-3 5 C-3.33 5.99 -3.66 6.98 -4 8 C-5.98 8.33 -7.96 8.66 -10 9 C-10.33 8.34 -10.66 7.68 -11 7 C-5.25 5 -5.25 5 -3 5 Z " fill="#368FEA" transform="translate(117,90)"/>
<path d="M0 0 C0.66 0 1.32 0 2 0 C2.33 3.3 2.66 6.6 3 10 C2.01 10.33 1.02 10.66 0 11 C0 7.37 0 3.74 0 0 Z " fill="#BE8D3C" transform="translate(245,71)"/>
<path d="M0 0 C2.95409701 1.37154504 5.44008376 2.98863724 8 5 C8.66 4.67 9.32 4.34 10 4 C10.33 4.99 10.66 5.98 11 7 C7.75 6.875 7.75 6.875 4 6 C1.5625 2.9375 1.5625 2.9375 0 0 Z " fill="#F2A32E" transform="translate(282,62)"/>
<path d="M0 0 C0.99 0.66 1.98 1.32 3 2 C3 2.66 3 3.32 3 4 C1.25 5.5078125 1.25 5.5078125 -1 7.125 C-1.7425 7.66382812 -2.485 8.20265625 -3.25 8.7578125 C-3.8275 9.16773437 -4.405 9.57765625 -5 10 C-4.6875 8.125 -4.6875 8.125 -4 6 C-3.01 5.34 -2.02 4.68 -1 4 C-0.27617533 1.94074861 -0.27617533 1.94074861 0 0 Z " fill="#E8982E" transform="translate(61,86)"/>
<path d="M0 0 C0 1.98 0 3.96 0 6 C-2.31 6 -4.62 6 -7 6 C-6 5 -5 4 -4 3 C-3.46375 2.443125 -2.9275 1.88625 -2.375 1.3125 C-1 0 -1 0 0 0 Z " fill="#F8A013" transform="translate(197,89)"/>
<path d="M0 0 C0.99 0.33 1.98 0.66 3 1 C1.35 2.65 -0.3 4.3 -2 6 C-2.99 5.67 -3.98 5.34 -5 5 C-4.67 4.01 -4.34 3.02 -4 2 C-2.68 2 -1.36 2 0 2 C0 1.34 0 0.68 0 0 Z " fill="#F2A229" transform="translate(48,101)"/>
<path d="M0 0 C0.66 0 1.32 0 2 0 C1.67 1.65 1.34 3.3 1 5 C-0.65 5.33 -2.3 5.66 -4 6 C-2.84826645 3.53199953 -1.95216435 1.95216435 0 0 Z " fill="#F4AC54" transform="translate(51,36)"/>
<path d="M0 0 C1.32 0.33 2.64 0.66 4 1 C4 1.99 4 2.98 4 4 C1.625 4.625 1.625 4.625 -1 5 C-1.66 4.34 -2.32 3.68 -3 3 C-2.01 2.67 -1.02 2.34 0 2 C0 1.34 0 0.68 0 0 Z " fill="#F25772" transform="translate(115,14)"/>
<path d="M0 0 C1.95803507 -0.05389087 3.91648909 -0.09274217 5.875 -0.125 C7.51082031 -0.15980469 7.51082031 -0.15980469 9.1796875 -0.1953125 C12 0 12 0 14 2 C12.0085944 2.38133299 10.00720923 2.71325582 8 3 C7.67 2.67 7.34 2.34 7 2 C4.67182036 1.63239269 2.3381615 1.29758419 0 1 C0 0.67 0 0.34 0 0 Z " fill="#F05271" transform="translate(94,10)"/>
<path d="M0 0 C1.3921875 0.3403125 1.3921875 0.3403125 2.8125 0.6875 C2.4825 1.3475 2.1525 2.0075 1.8125 2.6875 C-0.8275 2.6875 -3.4675 2.6875 -6.1875 2.6875 C-4.14987265 -0.14253799 -3.59070275 -0.35202968 0 0 Z " fill="#F5A31D" transform="translate(225.1875,57.3125)"/>
<path d="M0 0 C0.33 0.66 0.66 1.32 1 2 C1.99 2.33 2.98 2.66 4 3 C3.34 3.66 2.68 4.32 2 5 C-1 5 -1 5 -4 4 C-2.68 2.68 -1.36 1.36 0 0 Z " fill="#D58F28" transform="translate(46,41)"/>
<path d="M0 0 C0.33 0.66 0.66 1.32 1 2 C0.06421005 4.35981813 -0.93347808 6.69631264 -2 9 C-2.66 7.68 -3.32 6.36 -4 5 C-2.68 3.35 -1.36 1.7 0 0 Z " fill="#D2714B" transform="translate(56,31)"/>
<path d="M0 0 C2.31 0 4.62 0 7 0 C4.14693203 2.32472205 1.45925163 3.7508258 -2 5 C-2 4.01 -2 3.02 -2 2 C-1.34 2 -0.68 2 0 2 C0 1.34 0 0.68 0 0 Z " fill="#BA384A" transform="translate(93,9)"/>
<path d="M0 0 C0.33 0.99 0.66 1.98 1 3 C-1.31 3 -3.62 3 -6 3 C-6 2.34 -6 1.68 -6 1 C-4 0 -4 0 0 0 Z " fill="#3182D7" transform="translate(96,97)"/>
<path d="M0 0 C0.66 0 1.32 0 2 0 C2 0.66 2 1.32 2 2 C1.34 2 0.68 2 0 2 C-0.33 2.99 -0.66 3.98 -1 5 C-3.5625 6.1875 -3.5625 6.1875 -6 7 C-5.04882866 5.8274869 -4.08882991 4.66212985 -3.125 3.5 C-2.59132813 2.8503125 -2.05765625 2.200625 -1.5078125 1.53125 C-0.76144531 0.77328125 -0.76144531 0.77328125 0 0 Z " fill="#F5A829" transform="translate(276,84)"/>
<path d="M0 0 C0.66 0.33 1.32 0.66 2 1 C2.1875 3.375 2.1875 3.375 2 6 C1.01 6.66 0.02 7.32 -1 8 C-0.67 5.36 -0.34 2.72 0 0 Z " fill="#F6A219" transform="translate(255,67)"/>
<path d="M0 0 C0 1.65 0 3.3 0 5 C-0.61875 5.144375 -1.2375 5.28875 -1.875 5.4375 C-4.03258322 5.93152225 -4.03258322 5.93152225 -6 7 C-2.86206897 0 -2.86206897 0 0 0 Z " fill="#EF9816" transform="translate(20,69)"/>
<path d="M0 0 C0.99 0 1.98 0 3 0 C3 2.97 3 5.94 3 9 C0.87491756 5.81237635 0.4979837 3.73487777 0 0 Z " fill="#46BDF5" transform="translate(139,41)"/>
<path d="M0 0 C3.0916909 2.52956528 3.90931332 5.22454612 5 9 C4.34 9 3.68 9 3 9 C0 2.25 0 2.25 0 0 Z " fill="#2E9DE2" transform="translate(134,31)"/>
<path d="M0 0 C2.475 0.99 2.475 0.99 5 2 C2.29120665 3.35439668 -0.00933268 3.06501451 -3 3 C-2.01 2.01 -1.02 1.02 0 0 Z " fill="#A6A193" transform="translate(213,92)"/>
<path d="M0 0 C0.66 0.33 1.32 0.66 2 1 C1.01 1.66 0.02 2.32 -1 3 C-1.99 2.67 -2.98 2.34 -4 2 C-2.125 0.9375 -2.125 0.9375 0 0 Z " fill="#D8DBD8" transform="translate(180,54)"/>
<path d="M0 0 C3 1 3 1 3 1 Z " fill="#B8B8AA" transform="translate(289,56)"/>
<path d="M0 0 C0.66 0 1.32 0 2 0 C1.67 0.66 1.34 1.32 1 2 C0.67 1.34 0.34 0.68 0 0 Z " fill="#DDDDDD" transform="translate(225,19)"/>
<path d="M0 0 C2 1 2 1 2 1 Z " fill="#000000" transform="translate(301,103)"/>
<path d="" fill="#FFFFFF" transform="translate(0,0)"/>
<path d="M0 0 C2 1 2 1 2 1 Z " fill="#FFFFFF" transform="translate(292,55)"/>
<path d="" fill="#FFFFFF" transform="translate(0,0)"/>
<path d="" fill="#FFFFFF" transform="translate(0,0)"/>
<path d="" fill="#FFFFFF" transform="translate(0,0)"/>
</svg>
